<svg class="border shadow-md dark:border-slate-700" viewBox="0 0 779.68 779.68" xmlns="http://www.w3.org/2000/svg" preserveAspectRatio="none" style="width: 779.68px; height: 779.68px;"><rect class="bg" id="bg" x="0" y="0" width="779.68" height="779.68" fill="#ffffff"/><g transform="&#10;        translate(-487.29999999999995&#10;        -487.29999999999995)&#10;        scale(2.25)&#10;                        "><path d="M626,549.5Q574,709,396.5,697Q219,685,121,537.5Q23,390,113.5,229.5Q204,69,356.5,126.5Q509,184,593.5,287Q678,390,626,549.5Z" fill="#222f70" stroke="none" stroke-width="10"/></g><g transform="&#10;        translate(-397.6368&#10;        -397.6368)&#10;        scale(2.02)&#10;                        "><path d="M626,549.5Q574,709,396.5,697Q219,685,121,537.5Q23,390,113.5,229.5Q204,69,356.5,126.5Q509,184,593.5,287Q678,390,626,549.5Z" fill="#26337e" stroke="none" stroke-width="10"/></g><g transform="&#10;        translate(-311.872&#10;        -311.872)&#10;        scale(1.80)&#10;                        "><path d="M626,549.5Q574,709,396.5,697Q219,685,121,537.5Q23,390,113.5,229.5Q204,69,356.5,126.5Q509,184,593.5,287Q678,390,626,549.5Z" fill="#2a378c" stroke="none" stroke-width="10"/></g><g transform="&#10;        translate(-222.2088&#10;        -222.2088)&#10;        scale(1.57)&#10;                        "><path d="M626,549.5Q574,709,396.5,697Q219,685,121,537.5Q23,390,113.5,229.5Q204,69,356.5,126.5Q509,184,593.5,287Q678,390,626,549.5Z" fill="#2e3b9a" stroke="none" stroke-width="10"/></g><g transform="&#10;        translate(-136.44400000000002&#10;        -136.44400000000002)&#10;        scale(1.35)&#10;                        "><path d="M626,549.5Q574,709,396.5,697Q219,685,121,537.5Q23,390,113.5,229.5Q204,69,356.5,126.5Q509,184,593.5,287Q678,390,626,549.5Z" fill="#323fa8" stroke="none" stroke-width="10"/></g><g transform="&#10;        translate(-50.67919999999995&#10;        -50.67919999999995)&#10;        scale(1.13)&#10;                        "><path d="M626,549.5Q574,709,396.5,697Q219,685,121,537.5Q23,390,113.5,229.5Q204,69,356.5,126.5Q509,184,593.5,287Q678,390,626,549.5Z" fill="#3643b6" stroke="none" stroke-width="10"/></g><g transform="&#10;        translate(38.98399999999999&#10;        38.98399999999999)&#10;        scale(0.90)&#10;                        "><path d="M626,549.5Q574,709,396.5,697Q219,685,121,537.5Q23,390,113.5,229.5Q204,69,356.5,126.5Q509,184,593.5,287Q678,390,626,549.5Z" fill="#3a47c4" stroke="none" stroke-width="10"/></g><g transform="&#10;        translate(124.74879999999997&#10;        124.74879999999997)&#10;        scale(0.68)&#10;                        "><path d="M626,549.5Q574,709,396.5,697Q219,685,121,537.5Q23,390,113.5,229.5Q204,69,356.5,126.5Q509,184,593.5,287Q678,390,626,549.5Z" fill="#3e4bd2" stroke="none" stroke-width="10"/></g><g transform="&#10;        translate(214.412&#10;        214.412)&#10;        scale(0.45)&#10;                        "><path d="M626,549.5Q574,709,396.5,697Q219,685,121,537.5Q23,390,113.5,229.5Q204,69,356.5,126.5Q509,184,593.5,287Q678,390,626,549.5Z" fill="#424fe0" stroke="none" stroke-width="10"/></g><g transform="&#10;        translate(300.1768&#10;        300.1768)&#10;        scale(0.23)&#10;                        "><path d="M626,549.5Q574,709,396.5,697Q219,685,121,537.5Q23,390,113.5,229.5Q204,69,356.5,126.5Q509,184,593.5,287Q678,390,626,549.5Z" fill="#4653ee" stroke="none" stroke-width="10"/></g></svg>